<svg width="201" height="32" viewBox="0 0 201 32" fill="none" xmlns="http://www.w3.org/2000/svg">
<path d="M6.07679 30.7817H6.63715V30.2213V12.5787L10.3323 30.2939L10.4253 30.7397H10.8809H13.9685H14.4287L14.5182 30.2884L18.0134 12.6535V30.2213V30.7817H18.5737H21.6195H22.1799V30.2213V1.27118V0.710818H21.6195H17.1189H16.6587L16.5692 1.16217L12.5241 21.5585L8.32119 1.1581L8.22903 0.710818H7.77236H3.27178H2.71143V1.27118V30.2213V30.7817H3.27178H6.07679ZM38.0255 30.7817H38.4879L38.5758 30.328L39.6182 24.9466H45.9992L47.0418 30.328L47.1297 30.7817H47.5919H50.805H51.4826L51.3555 30.1161L45.8239 1.16601L45.737 0.710818H45.2737H40.5899H40.1264L40.0394 1.16601L34.5079 30.1161L34.3808 30.7817H35.0583H38.0255ZM67.1275 30.7817H67.6878V30.2213V10.4489L74.0035 30.3906L74.1275 30.7817H74.5378H77.887H78.4473V30.2213V1.27118V0.710818H77.887H75.0245H74.4641V1.27118V18.6107L68.8755 1.10079L68.7509 0.710818H68.3417H64.244H63.6837V1.27118V30.2213V30.7817H64.244H67.1275ZM95.366 30.7817H95.9263V30.2213V1.27118V0.710818H95.366H92.137H91.5767V1.27118V30.2213V30.7817H92.137H95.366ZM112.84 30.7817H113.4V30.2213V18.2481H119.481H120.041V17.6877V14.7572V14.1968H119.481H113.4V4.78307H121.098H121.658V4.22271V1.27118V0.710818H121.098H109.611H109.05V1.27118V30.2213V30.7817H109.611H112.84ZM138.843 26.1474L138.842 26.1463C138.379 25.5636 138.106 24.6741 138.106 23.3973V8.0953C138.106 6.83439 138.378 5.94607 138.844 5.35463C139.285 4.79514 139.96 4.47955 140.974 4.47955C142.008 4.47955 142.685 4.79729 143.117 5.35201C143.577 5.9437 143.846 6.83311 143.846 8.0953V23.3973C143.846 24.7285 143.571 25.6229 143.115 26.1776C142.677 26.7113 141.999 27.0182 140.974 27.0182C139.959 27.0182 139.284 26.7037 138.843 26.1474ZM173.126 30.7817H173.686V30.2213V27.2959V26.7356H173.126H165.428V1.27118V0.710818H164.868H161.639H161.079V1.27118V30.2213V30.7817H161.639H173.126ZM185.963 30.2213V30.7817H186.523H193.312C195.607 30.7817 197.426 30.1254 198.657 28.7225V28.7218C199.863 27.3414 200.428 25.432 200.428 23.0728V8.48255C200.428 6.10979 199.865 4.18781 198.659 2.79396V2.79329C197.429 1.37527 195.611 0.710818 193.312 0.710818H186.523H185.963V1.27118V30.2213ZM45.3412 21.0628H40.2365L42.7578 7.87775L45.3412 21.0628ZM133.814 8.27845V23.235C133.814 25.5774 134.4 27.4961 135.636 28.9239C136.892 30.3749 138.703 31.0643 140.974 31.0643C143.27 31.0643 145.098 30.3765 146.362 28.9251C147.606 27.4974 148.196 25.5782 148.196 23.235V8.27845C148.196 5.91317 147.607 3.98385 146.362 2.56151C145.098 1.11405 143.269 0.428223 140.974 0.428223C138.691 0.428223 136.875 1.11466 135.625 2.56383C134.395 3.98621 133.814 5.91461 133.814 8.27845ZM193.268 26.7356H190.318V4.78307H193.227C194.272 4.78307 194.962 5.08693 195.406 5.60953C195.864 6.14983 196.142 7.02032 196.142 8.32032V23.1983C196.142 24.4996 195.867 25.3712 195.414 25.9117C194.977 26.4332 194.298 26.7356 193.268 26.7356Z" fill="black" stroke="black" stroke-width="0.856229" stroke-linecap="round"/>
<path d="M3.79347 30.7817H4.35382V30.2213V12.5787L8.049 30.2939L8.14202 30.7397H8.59756H11.6851H12.1453L12.2348 30.2884L15.73 12.6535V30.2213V30.7817H16.2904H19.3362H19.8965V30.2213V1.27118V0.710818H19.3362H14.8355H14.3754L14.2859 1.16217L10.2408 21.5585L6.03786 1.1581L5.94571 0.710818H5.48903H0.988459H0.428101V1.27118V30.2213V30.7817H0.988459H3.79347ZM35.7422 30.7817H36.2046L36.2925 30.328L37.3349 24.9466H43.7159L44.7585 30.328L44.8464 30.7817H45.3086H48.5217H49.1993L49.0721 30.1161L43.5406 1.16601L43.4537 0.710818H42.9903H38.3065H37.843L37.7561 1.16601L32.2246 30.1161L32.0975 30.7817H32.775H35.7422ZM64.8441 30.7817H65.4045V30.2213V10.4489L71.7202 30.3906L71.8441 30.7817H72.2545H75.6037H76.164V30.2213V1.27118V0.710818H75.6037H72.7412H72.1808V1.27118V18.6107L66.5921 1.10079L66.4676 0.710818H66.0583H61.9607H61.4003V1.27118V30.2213V30.7817H61.9607H64.8441ZM93.0827 30.7817H93.643V30.2213V1.27118V0.710818H93.0827H89.8537H89.2934V1.27118V30.2213V30.7817H89.8537H93.0827ZM110.556 30.7817H111.117V30.2213V18.2481H117.197H117.758V17.6877V14.7572V14.1968H117.197H111.117V4.78307H118.814H119.375V4.22271V1.27118V0.710818H118.814H107.327H106.767V1.27118V30.2213V30.7817H107.327H110.556ZM136.56 26.1474L136.559 26.1463C136.095 25.5636 135.823 24.6741 135.823 23.3973V8.0953C135.823 6.83439 136.094 5.94607 136.561 5.35463C137.002 4.79514 137.676 4.47955 138.69 4.47955C139.725 4.47955 140.401 4.79729 140.833 5.35201C141.294 5.9437 141.563 6.83311 141.563 8.0953V23.3973C141.563 24.7285 141.287 25.6229 140.832 26.1776C140.394 26.7113 139.716 27.0182 138.69 27.0182C137.675 27.0182 137.001 26.7037 136.56 26.1474ZM170.843 30.7817H171.403V30.2213V27.2959V26.7356H170.843H163.145V1.27118V0.710818H162.585H159.356H158.796V1.27118V30.2213V30.7817H159.356H170.843ZM183.68 30.2213V30.7817H184.24H191.028C193.324 30.7817 195.143 30.1254 196.374 28.7225V28.7218C197.58 27.3414 198.145 25.432 198.145 23.0728V8.48255C198.145 6.10979 197.581 4.18781 196.376 2.79396V2.79329C195.146 1.37527 193.327 0.710818 191.028 0.710818H184.24H183.68V1.27118V30.2213ZM43.0579 21.0628H37.9532L40.4745 7.87775L43.0579 21.0628ZM131.531 8.27845V23.235C131.531 25.5774 132.117 27.4961 133.352 28.9239C134.608 30.3749 136.419 31.0643 138.69 31.0643C140.986 31.0643 142.815 30.3765 144.079 28.9251C145.323 27.4974 145.912 25.5782 145.912 23.235V8.27845C145.912 5.91317 145.324 3.98385 144.078 2.56151C142.814 1.11405 140.986 0.428223 138.69 0.428223C136.408 0.428223 134.592 1.11466 133.342 2.56383C132.112 3.98621 131.531 5.91461 131.531 8.27845ZM190.985 26.7356H188.034V4.78307H190.943C191.989 4.78307 192.679 5.08693 193.122 5.60953C193.58 6.14983 193.859 7.02032 193.859 8.32032V23.1983C193.859 24.4996 193.584 25.3712 193.13 25.9117C192.693 26.4332 192.015 26.7356 190.985 26.7356Z" fill="white" stroke="black" stroke-width="0.856229" stroke-linecap="round"/>
<path d="M4.35382 30.7818H3.79347H0.988459H0.428101V30.2215V1.2713V0.710938H0.988459H5.48903H5.94571L6.03786 1.15822L10.2408 21.5586L14.2859 1.16229L14.3754 0.710938H14.8355H19.3362H19.8965V1.2713V30.2215V30.7818H19.3362H16.2904H15.73V30.2215V12.6536L12.2348 30.2885L12.1453 30.7399H11.6851H8.59756H8.14202L8.049 30.294L4.35382 12.5789V30.2215V30.7818Z" fill="white" stroke="black" stroke-width="0.856229" stroke-linecap="round"/>
</svg>
